<?xml version="1.0" encoding="utf-8"?>
<!-- Generator: Adobe Illustrator 17.0.0, SVG Export Plug-In . SVG Version: 6.00 Build 0)  -->
<!DOCTYPE svg PUBLIC "-//W3C//DTD SVG 1.1//EN" "http://www.w3.org/Graphics/SVG/1.1/DTD/svg11.dtd">
<svg version="1.1" id="facebook" xmlns="http://www.w3.org/2000/svg" xmlns:xlink="http://www.w3.org/1999/xlink" x="0px" y="0px"
	 width="96px" height="96px" viewBox="0 0 96 96" enable-background="new 0 0 96 96" xml:space="preserve">
<g>
	<path fill="#010101" d="M93.432,16.032c-0.459-0.176-0.901-0.265-1.326-0.265c-0.954,0-1.749,0.336-2.385,1.008L68.356,38.087
		V29.34c0-4.206-1.493-7.802-4.48-10.788c-2.987-2.986-6.582-4.48-10.788-4.48H15.767c-4.205,0-7.802,1.493-10.788,4.48
		C1.993,21.538,0.5,25.133,0.5,29.34v37.321c0,4.206,1.493,7.801,4.479,10.788c2.987,2.987,6.583,4.48,10.788,4.48h37.321
		c4.206,0,7.802-1.493,10.788-4.48c2.986-2.987,4.48-6.582,4.48-10.788V57.86l21.365,21.365c0.637,0.671,1.431,1.007,2.385,1.007
		c0.424,0,0.866-0.088,1.326-0.264c1.379-0.601,2.068-1.643,2.068-3.128V19.161C95.499,17.676,94.811,16.633,93.432,16.032z"/>
</g>
</svg>
