<?xml version="1.0" encoding="utf-8"?>
<!-- Generator: Adobe Illustrator 17.0.0, SVG Export Plug-In . SVG Version: 6.00 Build 0)  -->
<!DOCTYPE svg PUBLIC "-//W3C//DTD SVG 1.1//EN" "http://www.w3.org/Graphics/SVG/1.1/DTD/svg11.dtd">
<svg version="1.1" id="facebook" xmlns="http://www.w3.org/2000/svg" xmlns:xlink="http://www.w3.org/1999/xlink" x="0px" y="0px"
	 width="96px" height="96px" viewBox="0 0 96 96" enable-background="new 0 0 96 96" xml:space="preserve">
<g>
	<path d="M0.5,48.024c0-6.177,1.203-12.055,3.607-17.634c2.406-5.646,5.629-10.479,9.672-14.497
		c4.041-4.085,8.886-7.322,14.532-9.714s11.56-3.587,17.74-3.587c6.153,0,12.009,1.196,17.568,3.587
		c5.594,2.391,10.406,5.629,14.443,9.714c4.036,4.052,7.246,8.885,9.63,14.497c2.381,5.579,3.572,11.457,3.572,17.634
		c0,5.978-1.173,11.857-3.522,17.635l7.309,20.076c0.3,0.862,0.449,1.644,0.449,2.341c0,0.664-0.217,1.212-0.649,1.644
		c-0.432,0.431-0.996,0.648-1.692,0.648c-0.599,0-1.363-0.183-2.291-0.548L74.29,83.394c-8.272,6.675-17.685,10.013-28.239,10.013
		c-6.18,0-12.094-1.196-17.74-3.587c-5.614-2.391-10.456-5.613-14.532-9.665c-4.009-3.985-7.234-8.8-9.672-14.446
		C1.703,60.097,0.5,54.202,0.5,48.024z M17.786,48.024c0,1.595,0.562,2.957,1.687,4.085c1.123,1.129,2.479,1.695,4.066,1.695
		c1.62,0,2.993-0.565,4.116-1.695c1.126-1.128,1.687-2.49,1.687-4.085c0-1.594-0.562-2.955-1.687-4.085
		c-1.156-1.162-2.529-1.744-4.116-1.744c-1.555,0-2.91,0.582-4.066,1.744C18.347,45.069,17.786,46.431,17.786,48.024z
		 M39.157,48.024c0,1.595,0.562,2.957,1.685,4.085c1.126,1.129,2.481,1.695,4.069,1.695c1.62,0,2.993-0.565,4.116-1.695
		c1.123-1.128,1.687-2.49,1.687-4.085c0-1.594-0.564-2.955-1.687-4.085c-1.158-1.162-2.529-1.744-4.116-1.744
		c-1.555,0-2.91,0.582-4.066,1.744C39.719,45.069,39.157,46.431,39.157,48.024z M60.529,48.024c0,1.595,0.562,2.957,1.685,4.085
		c1.123,1.129,2.496,1.695,4.119,1.695c1.553,0,2.876-0.565,3.966-1.695c1.123-1.128,1.687-2.49,1.687-4.085
		c0-1.594-0.564-2.955-1.687-4.085c-1.091-1.162-2.414-1.744-3.966-1.744c-1.59,0-2.96,0.582-4.119,1.744
		C61.091,45.069,60.529,46.431,60.529,48.024z"/>
</g>
</svg>
