<?xml version="1.0" encoding="utf-8"?>
<!-- Generator: Adobe Illustrator 17.0.0, SVG Export Plug-In . SVG Version: 6.00 Build 0)  -->
<!DOCTYPE svg PUBLIC "-//W3C//DTD SVG 1.1//EN" "http://www.w3.org/Graphics/SVG/1.1/DTD/svg11.dtd">
<svg version="1.1" id="facebook" xmlns="http://www.w3.org/2000/svg" xmlns:xlink="http://www.w3.org/1999/xlink" x="0px" y="0px"
	 width="96px" height="96px" viewBox="0 0 96 96" enable-background="new 0 0 96 96" xml:space="preserve">
<path fill="#010101" d="M48,0.5C21.875,0.5,0.5,21.875,0.5,48S21.875,95.5,48,95.5S95.5,74.125,95.5,48S74.125,0.5,48,0.5z
	 M48,12.375c19.713,0,35.625,15.913,35.625,35.625S67.713,83.625,48,83.625S12.375,67.713,12.375,48S28.288,12.375,48,12.375z
	 M71.75,24.25L36.125,36.125L24.25,71.75l35.625-11.875L71.75,24.25z M48,42.062c3.325,0,5.938,2.612,5.938,5.938
	c0,3.325-2.612,5.938-5.938,5.938S42.062,51.325,42.062,48S44.675,42.062,48,42.062z"/>
</svg>
