<?xml version="1.0" encoding="utf-8"?>
<!-- Generator: Adobe Illustrator 17.0.0, SVG Export Plug-In . SVG Version: 6.00 Build 0)  -->
<!DOCTYPE svg PUBLIC "-//W3C//DTD SVG 1.1//EN" "http://www.w3.org/Graphics/SVG/1.1/DTD/svg11.dtd">
<svg version="1.1" id="facebook" xmlns="http://www.w3.org/2000/svg" xmlns:xlink="http://www.w3.org/1999/xlink" x="0px" y="0px"
	 width="96px" height="96px" viewBox="0 0 96 96" enable-background="new 0 0 96 96" xml:space="preserve">
<g>
	<path d="M9.096,38.368c0-5.073,1.006-9.983,3.014-14.723c2.042-4.673,4.765-8.69,8.169-12.052
		c3.472-3.429,7.557-6.118,12.257-8.068C37.301,1.508,42.289,0.5,47.496,0.5c5.311,0,10.41,1.008,15.301,3.026
		c4.821,1.949,9.012,4.639,12.578,8.068c3.598,3.463,6.392,7.48,8.383,12.052c2.095,4.672,3.146,9.578,3.146,14.723
		c0,2.188-0.235,4.422-0.702,6.706h0.109l-0.21,1.364c-0.106,0.571-0.472,1.832-1.102,3.78c-0.662,2.087-1.465,4.103-2.408,6.051
		c-0.874,1.951-2.342,4.556-4.401,7.815c-1.923,3.027-4.209,6.155-6.862,9.379c-2.62,3.196-5.973,6.708-10.061,10.541
		c-4.156,3.931-8.679,7.764-13.568,11.496c-4.182-3.259-8.158-6.673-11.933-10.238c-3.775-3.563-6.85-6.771-9.23-9.629
		c-2.721-3.227-4.929-6.084-6.63-8.573c-0.611-0.874-1.198-1.738-1.761-2.597c-0.561-0.857-1.079-1.688-1.554-2.496
		c-0.475-0.806-0.902-1.546-1.276-2.218c-0.374-0.672-0.738-1.377-1.097-2.117c-0.356-0.738-0.654-1.344-0.894-1.814
		c-0.243-0.47-0.5-1.036-0.773-1.69c-0.275-0.654-0.472-1.124-0.594-1.412c-0.119-0.283-0.291-0.705-0.515-1.258
		c-0.222-0.556-0.351-0.884-0.387-0.985l-0.359-1.261C9.629,45.579,9.096,41.966,9.096,38.368z M32.546,31.359
		c0,4.336,1.491,8.002,4.48,10.993c2.986,2.994,6.645,4.487,10.973,4.487c4.298,0,7.939-1.493,10.925-4.487
		c3.022-3.024,4.53-6.688,4.53-10.993c0-4.267-1.508-7.916-4.53-10.942c-3.022-3.026-6.663-4.538-10.925-4.538
		c-4.295,0-7.954,1.512-10.973,4.538C34.037,23.41,32.546,27.057,32.546,31.359z"/>
</g>
</svg>
