<?xml version="1.0" encoding="utf-8"?>
<!-- Generator: Adobe Illustrator 17.0.0, SVG Export Plug-In . SVG Version: 6.00 Build 0)  -->
<!DOCTYPE svg PUBLIC "-//W3C//DTD SVG 1.1//EN" "http://www.w3.org/Graphics/SVG/1.1/DTD/svg11.dtd">
<svg version="1.1" id="facebook" xmlns="http://www.w3.org/2000/svg" xmlns:xlink="http://www.w3.org/1999/xlink" x="0px" y="0px"
	 width="96px" height="96px" viewBox="0 0 96 96" enable-background="new 0 0 96 96" xml:space="preserve">
<g>
	<path fill="#010101" d="M94.218,77.127L80.692,38.043c-0.745-2.13-3.195-3.834-5.431-3.834H3.482c-2.236,0-3.514,1.704-2.769,3.834
		l13.632,39.084c0.745,2.13,3.195,3.834,5.431,3.834h71.672C93.792,80.961,94.963,79.257,94.218,77.127z"/>
	<path fill="#010101" d="M91.449,23.026H42.78v-3.834c0-2.236-1.81-4.153-4.153-4.153h-18.85c-2.236,0-4.153,1.81-4.153,4.153v6.816
		c0,0.213,0,0.319,0,0.532c0,0.213,0,0.319,0,0.532v3.727h59.532c3.621,0,7.348,2.662,8.52,6.07L95.496,70.95V27.18
		C95.602,24.943,93.792,23.026,91.449,23.026z"/>
</g>
</svg>
