<?xml version="1.0" encoding="utf-8"?>
<!-- Generator: Adobe Illustrator 17.0.0, SVG Export Plug-In . SVG Version: 6.00 Build 0)  -->
<!DOCTYPE svg PUBLIC "-//W3C//DTD SVG 1.1//EN" "http://www.w3.org/Graphics/SVG/1.1/DTD/svg11.dtd">
<svg version="1.1" id="facebook" xmlns="http://www.w3.org/2000/svg" xmlns:xlink="http://www.w3.org/1999/xlink" x="0px" y="0px"
	 width="96px" height="96px" viewBox="0 0 96 96" enable-background="new 0 0 96 96" xml:space="preserve">
<g>
	<path fill="#010101" d="M88,63.05c-5.86,0-11.6-0.915-17.04-2.71c-2.605-0.91-5.815-0.085-7.415,1.57L52.76,70.055
		C40.385,63.45,32.465,55.535,25.95,43.25l7.925-10.53c1.995-1.995,2.71-4.915,1.855-7.65C33.92,19.595,33,13.85,33,8
		c0-4.135-3.365-7.5-7.5-7.5H8C3.865,0.5,0.5,3.865,0.5,8c0,48.245,39.255,87.5,87.5,87.5c4.135,0,7.5-3.365,7.5-7.5V70.55
		C95.5,66.415,92.135,63.05,88,63.05z"/>
	<path fill="#010101" d="M58,5.5c17.92,0,32.5,14.58,32.5,32.5c0,1.38,1.12,2.5,2.5,2.5s2.5-1.12,2.5-2.5
		C95.5,17.32,78.68,0.5,58,0.5c-1.38,0-2.5,1.12-2.5,2.5S56.62,5.5,58,5.5z"/>
	<path fill="#010101" d="M58,25.5c6.895,0,12.5,5.61,12.5,12.5c0,1.38,1.12,2.5,2.5,2.5s2.5-1.12,2.5-2.5
		c0-9.65-7.85-17.5-17.5-17.5c-1.38,0-2.5,1.12-2.5,2.5S56.62,25.5,58,25.5z"/>
</g>
</svg>
