<?xml version="1.0" encoding="utf-8"?>
<!-- Generator: Adobe Illustrator 17.0.0, SVG Export Plug-In . SVG Version: 6.00 Build 0)  -->
<!DOCTYPE svg PUBLIC "-//W3C//DTD SVG 1.1//EN" "http://www.w3.org/Graphics/SVG/1.1/DTD/svg11.dtd">
<svg version="1.1" id="facebook" xmlns="http://www.w3.org/2000/svg" xmlns:xlink="http://www.w3.org/1999/xlink" x="0px" y="0px"
	 width="96px" height="96px" viewBox="0 0 96 96" enable-background="new 0 0 96 96" xml:space="preserve">
<g>
	<rect x="18.312" y="0.5" fill="#010101" width="11.875" height="11.875"/>
	<rect x="65.812" y="0.5" fill="#010101" width="11.875" height="11.875"/>
	<path fill="#010101" d="M89.562,6.438h-5.938v5.938c0,3.28-2.657,5.938-5.938,5.938H65.812c-3.28,0-5.938-2.657-5.938-5.938V6.438
		h-23.75v5.938c0,3.28-2.66,5.938-5.94,5.938H18.31c-3.28,0-5.935-2.657-5.935-5.938V6.438h-5.94c-3.28,0-5.935,2.657-5.935,5.938
		v77.188c0,3.28,2.654,5.938,5.935,5.938h83.128c3.28,0,5.938-2.657,5.938-5.938V12.375C95.5,9.095,92.843,6.438,89.562,6.438z
		 M42.062,77.688H24.25V65.812h17.812V77.688z M42.062,53.938H24.25V42.062h17.812V53.938z M71.75,77.688H53.938V65.812H71.75
		V77.688z M71.75,53.938H53.938V42.062H71.75V53.938z"/>
</g>
</svg>
