<?xml version="1.0" encoding="utf-8"?>
<!-- Generator: Adobe Illustrator 17.0.0, SVG Export Plug-In . SVG Version: 6.00 Build 0)  -->
<!DOCTYPE svg PUBLIC "-//W3C//DTD SVG 1.1//EN" "http://www.w3.org/Graphics/SVG/1.1/DTD/svg11.dtd">
<svg version="1.1" id="facebook" xmlns="http://www.w3.org/2000/svg" xmlns:xlink="http://www.w3.org/1999/xlink" x="0px" y="0px"
	 width="96px" height="96px" viewBox="0 0 96 96" enable-background="new 0 0 96 96" xml:space="preserve">
<g>
	<ellipse fill="#010101" cx="47.753" cy="24.767" rx="23.107" ry="24.267"/>
	<path fill="#010101" d="M91.222,77.416L91.222,77.416C87.741,56.631,62.84,49.878,59.57,49.14c-6.964,5.381-16.67,5.381-23.634,0
		C32.665,49.878,8.292,56.631,4.81,77.416l0,0c-1.794,8.652-1.161,15.932,3.165,17.62c3.482,1.477,14.033-2.005,17.937-3.376
		c0.422-0.106,0.95-0.317,1.372-0.528h0.106l0,0c2.321-1.161,4.009-3.587,4.009-6.331v-0.317c0-3.904-3.165-7.069-7.069-7.069
		h-0.317c-0.844,0-1.583,0.106-2.321,0.422V66.232c0,0,14.666,0,24.689,6.542l-0.106,22.685h2.954l-0.106-22.685
		c10.023-6.542,24.689-6.542,24.689-6.542v11.606c-0.739-0.211-1.477-0.422-2.321-0.422h-0.317c-3.904,0-7.069,3.165-7.069,7.069
		v0.317c0,3.376,2.427,6.225,5.592,6.964c3.798,1.372,14.455,4.853,18.042,3.376C92.067,93.348,93.122,86.068,91.222,77.416z"/>
</g>
</svg>
