<?xml version="1.0" encoding="utf-8"?>
<!-- Generator: Adobe Illustrator 17.0.0, SVG Export Plug-In . SVG Version: 6.00 Build 0)  -->
<!DOCTYPE svg PUBLIC "-//W3C//DTD SVG 1.1//EN" "http://www.w3.org/Graphics/SVG/1.1/DTD/svg11.dtd">
<svg version="1.1" id="facebook" xmlns="http://www.w3.org/2000/svg" xmlns:xlink="http://www.w3.org/1999/xlink" x="0px" y="0px"
	 width="96px" height="96px" viewBox="0 0 96 96" enable-background="new 0 0 96 96" xml:space="preserve">
<g>
	<path fill="#010101" d="M69.751,48l23.51-23.51c1.493-1.492,2.239-3.304,2.239-5.438c0-2.133-0.748-3.945-2.239-5.438L82.386,2.739
		C80.893,1.246,79.081,0.5,76.949,0.5c-2.133,0-3.945,0.746-5.438,2.239L48,26.249L24.49,2.739C22.998,1.246,21.186,0.5,19.052,0.5
		c-2.132,0-3.945,0.746-5.438,2.239L2.739,13.615C1.247,15.107,0.5,16.92,0.5,19.053c0,2.133,0.746,3.945,2.239,5.438L26.249,48
		l-23.51,23.51C1.247,73.004,0.5,74.815,0.5,76.949c0,2.131,0.746,3.944,2.239,5.437l10.876,10.875
		c1.493,1.493,3.306,2.239,5.438,2.239c2.133,0,3.945-0.748,5.438-2.239l23.51-23.51l23.512,23.51
		c1.492,1.493,3.303,2.239,5.438,2.239c2.132,0,3.944-0.748,5.437-2.239l10.873-10.875c1.493-1.491,2.239-3.305,2.239-5.437
		c0-2.134-0.746-3.945-2.239-5.438L69.751,48z"/>
</g>
</svg>
