<?xml version="1.0" encoding="utf-8"?>
<!-- Generator: Adobe Illustrator 17.0.0, SVG Export Plug-In . SVG Version: 6.00 Build 0)  -->
<!DOCTYPE svg PUBLIC "-//W3C//DTD SVG 1.1//EN" "http://www.w3.org/Graphics/SVG/1.1/DTD/svg11.dtd">
<svg version="1.1" id="facebook" xmlns="http://www.w3.org/2000/svg" xmlns:xlink="http://www.w3.org/1999/xlink" x="0px" y="0px"
	 width="96px" height="96px" viewBox="0 0 96 96" enable-background="new 0 0 96 96" xml:space="preserve">
<path fill="#010101" d="M94.058,75.706L56.701,11.028l-0.013,0.007c-0.468-0.951-1.072-1.844-1.861-2.635
	c-3.769-3.767-9.883-3.767-13.653,0c-0.684,0.683-1.246,1.449-1.672,2.258v-0.006L2.171,75.345v0.014
	c-0.59,0.865-1.058,1.842-1.339,2.916C-0.549,83.429,2.507,88.726,7.656,90.1c0.926,0.249,1.863,0.349,2.789,0.321l74.695-0.013
	V90.4c3.578,0.248,7.146-1.487,9.066-4.793C96.039,82.418,95.866,78.623,94.058,75.706z M52.424,76.015
	c-1.286,1.214-2.791,1.825-4.505,1.825c-1.745,0-3.271-0.611-4.545-1.825c-1.287-1.226-1.93-2.682-1.93-4.379
	c0-1.688,0.644-3.149,1.93-4.396c1.273-1.247,2.8-1.857,4.545-1.857c1.714,0,3.22,0.61,4.505,1.857
	c1.288,1.247,1.931,2.709,1.931,4.396C54.357,73.334,53.712,74.788,52.424,76.015z M53.967,38.192
	c-0.322,1.516-0.74,3.286-1.232,5.323c-0.471,1.918-1.021,4.317-1.612,7.196c-0.617,2.866-1.246,6.42-1.93,10.643h-2.586
	c-0.671-4.27-1.316-7.824-1.932-10.668c-0.6-2.834-1.138-5.22-1.609-7.145c-0.43-1.763-0.816-3.484-1.178-5.181
	c-0.361-1.691-0.536-2.957-0.536-3.816c0-1.709,0.63-3.177,1.915-4.403c1.287-1.222,2.818-1.825,4.614-1.825
	c1.77,0,3.309,0.602,4.609,1.825c1.315,1.226,1.974,2.694,1.974,4.403C54.464,35.469,54.289,36.683,53.967,38.192z"/>
</svg>
