<?xml version="1.0" encoding="utf-8"?>
<!-- Generator: Adobe Illustrator 17.0.0, SVG Export Plug-In . SVG Version: 6.00 Build 0)  -->
<!DOCTYPE svg PUBLIC "-//W3C//DTD SVG 1.1//EN" "http://www.w3.org/Graphics/SVG/1.1/DTD/svg11.dtd">
<svg version="1.1" id="facebook" xmlns="http://www.w3.org/2000/svg" xmlns:xlink="http://www.w3.org/1999/xlink" x="0px" y="0px"
	 width="96px" height="96px" viewBox="0 0 96 96" enable-background="new 0 0 96 96" xml:space="preserve">
<g>
	<path d="M0.5,81.899V13.998h6.232c0,2.954-0.015,4.62-0.049,4.996c-0.036,0.688,0.075,1.151,0.333,1.391
		c0.258,0.241,0.712,0.343,1.366,0.31c1.03-0.035,4.053-0.052,9.069-0.052h1.389v-6.646h58.578v5.203
		c-0.034,0.55,0.041,0.936,0.232,1.159c0.188,0.225,0.573,0.336,1.159,0.336c2.334-0.035,5.888-0.052,10.664-0.052v-6.646H95.5
		v68.004h-2.421h-3.555v-5.668h-5.976h-6.079v5.564h-58.63v-5.513H6.783v5.513H0.5z M6.683,63.538c0,0.174,0,0.347,0,0.52
		c0,0.346,0.015,0.623,0.049,0.831c0.036,0.346,0.137,0.572,0.31,0.675c0.137,0.139,0.343,0.235,0.62,0.287
		c0.274,0.052,0.521,0.077,0.746,0.077c0.222,0,0.532-0.009,0.927-0.026c0.395-0.017,0.679-0.026,0.852-0.026h8.601V53.77H6.732
		v8.678C6.698,62.622,6.683,62.985,6.683,63.538z M6.732,31.153c0,5.162,0.018,9.008,0.052,11.535c0,0.106,0.085,0.218,0.258,0.338
		c0.173,0.121,0.328,0.182,0.465,0.182c2.473,0.035,6.234,0.052,11.281,0.052V31.153H6.732z M36.666,65.462
		C53.941,55.439,63.797,49.722,66.237,48.31C47.552,37.493,37.696,31.774,36.666,31.153V65.462z M77.417,42.274
		c0,0.312,0.052,0.537,0.155,0.675c0.103,0.138,0.232,0.226,0.385,0.259c0.155,0.035,0.369,0.052,0.645,0.052h8.914
		c0.444,0,1.082-0.035,1.905-0.103V31.153H77.572c0,0.036-0.026,0.121-0.077,0.261c-0.052,0.138-0.077,0.241-0.077,0.311V42.274z
		 M77.417,53.77c0,5.058,0.015,8.834,0.052,11.327c0,0.138,0.129,0.294,0.387,0.467c0.256,0.174,0.488,0.261,0.694,0.261
		c0.55,0.035,2.197,0.052,4.946,0.052h5.976V53.77H77.417z"/>
</g>
</svg>
