<?xml version="1.0" encoding="utf-8"?>
<!-- Generator: Adobe Illustrator 17.0.0, SVG Export Plug-In . SVG Version: 6.00 Build 0)  -->
<!DOCTYPE svg PUBLIC "-//W3C//DTD SVG 1.1//EN" "http://www.w3.org/Graphics/SVG/1.1/DTD/svg11.dtd">
<svg version="1.1" id="facebook" xmlns="http://www.w3.org/2000/svg" xmlns:xlink="http://www.w3.org/1999/xlink" x="0px" y="0px"
	 width="96px" height="96px" viewBox="0 0 96 96" enable-background="new 0 0 96 96" xml:space="preserve">
<g>
	<polygon fill="#3FB1BF" points="14.223,48.45 5.705,36.452 0,36.452 0,67.478 6.429,67.478 6.429,48.092 13.782,58.434 
		14.746,58.434 22.099,48.092 22.099,67.478 28.528,67.478 28.528,36.452 22.782,36.452 	"/>
	<path fill="#3FB1BF" d="M80.568,51.315v5.327h2.853v5.015c-0.602,0.09-1.246,0.134-2.089,0.134c-7.313,0-10.126-4.969-10.126-9.894
		c0-6.044,4.099-9.939,9.764-9.939c2.813,0,5.585,0.716,8.116,2.059v-6.178c-2.853-1.254-5.465-1.746-8.518-1.746
		c-10.768,0-16.072,7.656-16.072,16.028c0,7.343,4.058,15.715,16.072,15.715c3.737,0,6.991-0.582,9.282-1.075V51.315H80.568z"/>
	<g>
		<g>
			<path fill="#006470" d="M92.988,38.694l0.004,4.634l2.487-0.002l0.001,1.051l-3.609,0.003l-0.005-5.684L92.988,38.694z"/>
			<path fill="#006470" d="M94.088,45.941L96,51.624l-1.164,0.001l-0.387-1.266l-1.908,0.002l-0.399,1.266l-1.129,0.001l1.925-5.686
				L94.088,45.941z M94.155,49.429l-0.645-2.086h-0.014l-0.663,2.087L94.155,49.429z"/>
			<path fill="#006470" d="M93.883,53.189c0.243,0,0.464,0.023,0.665,0.072c0.2,0.048,0.371,0.125,0.514,0.234
				c0.143,0.109,0.253,0.253,0.333,0.434c0.078,0.18,0.118,0.403,0.118,0.668c0.001,0.287-0.058,0.526-0.174,0.717
				c-0.117,0.192-0.289,0.348-0.518,0.47c0.315,0.101,0.55,0.277,0.704,0.529c0.155,0.253,0.233,0.556,0.233,0.912
				c0,0.286-0.049,0.535-0.149,0.745c-0.1,0.21-0.235,0.381-0.404,0.513c-0.169,0.132-0.362,0.231-0.578,0.295
				c-0.217,0.063-0.439,0.095-0.668,0.095l-2.473,0.002l-0.005-5.685L93.883,53.189z M93.741,55.491
				c0.2-0.001,0.365-0.053,0.494-0.16c0.128-0.106,0.193-0.279,0.192-0.518c0-0.133-0.021-0.242-0.064-0.327
				c-0.043-0.085-0.1-0.151-0.172-0.198c-0.071-0.048-0.153-0.081-0.246-0.1c-0.093-0.019-0.189-0.028-0.29-0.028l-1.05,0.001
				l0.001,1.33L93.741,55.491z M93.809,57.903c0.109,0,0.214-0.012,0.314-0.036c0.1-0.024,0.188-0.063,0.263-0.119
				c0.076-0.056,0.137-0.132,0.182-0.227c0.045-0.095,0.068-0.217,0.068-0.366c0-0.292-0.075-0.5-0.222-0.625
				c-0.148-0.124-0.343-0.187-0.586-0.187l-1.222,0.001l0.002,1.56L93.809,57.903z"/>
			<path fill="#006470" d="M92.546,64.721c0.062,0.133,0.144,0.24,0.247,0.323c0.102,0.082,0.222,0.143,0.36,0.183
				c0.138,0.04,0.281,0.059,0.429,0.059c0.1,0,0.207-0.009,0.322-0.028c0.114-0.018,0.221-0.054,0.322-0.108
				c0.1-0.053,0.184-0.126,0.25-0.219c0.067-0.093,0.1-0.211,0.1-0.355c0-0.154-0.044-0.278-0.132-0.374
				c-0.088-0.095-0.204-0.175-0.346-0.239c-0.143-0.064-0.305-0.119-0.486-0.167s-0.365-0.1-0.55-0.159
				c-0.192-0.053-0.378-0.118-0.559-0.194c-0.181-0.077-0.343-0.176-0.485-0.299c-0.143-0.122-0.258-0.274-0.347-0.457
				c-0.089-0.184-0.132-0.405-0.132-0.665c0-0.292,0.055-0.546,0.167-0.76c0.112-0.215,0.258-0.395,0.439-0.538
				c0.18-0.143,0.385-0.249,0.614-0.318c0.229-0.07,0.458-0.105,0.685-0.105c0.267,0,0.523,0.033,0.769,0.099
				c0.245,0.067,0.463,0.174,0.655,0.322c0.19,0.149,0.341,0.338,0.453,0.569c0.112,0.231,0.169,0.511,0.169,0.84l-1.086,0.001
				c-0.01-0.17-0.042-0.31-0.096-0.421c-0.056-0.112-0.128-0.199-0.219-0.263c-0.091-0.064-0.194-0.109-0.311-0.135
				c-0.117-0.027-0.244-0.04-0.382-0.04c-0.091,0.001-0.181,0.012-0.272,0.032c-0.091,0.021-0.173,0.059-0.247,0.112
				c-0.074,0.053-0.135,0.12-0.182,0.199c-0.047,0.08-0.071,0.181-0.071,0.303c0,0.111,0.019,0.202,0.057,0.271
				c0.039,0.069,0.114,0.132,0.225,0.191s0.267,0.117,0.464,0.174c0.197,0.058,0.458,0.132,0.776,0.222
				c0.095,0.021,0.228,0.059,0.397,0.115c0.17,0.056,0.337,0.144,0.504,0.267c0.166,0.122,0.31,0.285,0.433,0.489
				c0.122,0.205,0.183,0.466,0.183,0.784c0.001,0.26-0.045,0.502-0.135,0.725c-0.091,0.222-0.225,0.416-0.403,0.578
				c-0.179,0.161-0.4,0.288-0.665,0.379c-0.264,0.091-0.57,0.136-0.918,0.136c-0.281,0.001-0.554-0.038-0.818-0.114
				c-0.264-0.077-0.498-0.197-0.7-0.362c-0.202-0.164-0.365-0.374-0.483-0.629c-0.119-0.254-0.177-0.556-0.173-0.907l1.086-0.002
				C92.452,64.427,92.483,64.588,92.546,64.721z"/>
		</g>
	</g>
	<g>
		<path fill="#3FB1BF" d="M60.716,36.452h-2.668h-3.761v14.352v1.586c0,1.03,0,4.567-1.206,6.537
			c-1.366,2.283-3.817,3.134-5.625,3.134c-1.728,0-3.656-0.717-4.982-2.283c-1.487-1.746-1.728-3.94-1.728-7.387v-1.622V36.452
			h-4.201h-2.228H30.97v7.161h3.347v11.016c0,3.626,0.925,6.223,1.849,7.701c3.094,5.103,8.437,5.507,11.692,5.507
			c4.219,0,8.237-1.209,10.809-5.238c2.009-3.089,2.049-6.357,2.049-8.416V43.612h2.906v-7.161H60.716z M47.778,66.866
			c-1.06,0-1.919-0.828-1.919-1.852c0-1.021,0.86-1.849,1.92-1.849c1.061,0,1.921,0.828,1.921,1.849
			C49.7,66.038,48.839,66.866,47.778,66.866z"/>
		<path fill="#40A8B5" d="M47.778,63.166c-1.06,0-1.92,0.828-1.92,1.849c0,1.024,0.859,1.852,1.919,1.852
			c1.062,0,1.922-0.828,1.922-1.852C49.7,63.993,48.84,63.166,47.778,63.166z M47.778,66.338c-0.758,0-1.374-0.592-1.374-1.323
			c0-0.729,0.616-1.321,1.374-1.321c0.759,0,1.373,0.592,1.373,1.321C49.151,65.746,48.538,66.338,47.778,66.338z"/>
	</g>
	<path fill="#FFFFFF" d="M45.407,48.262"/>
	<g>
		<path fill="#006975" d="M53.061,50.734c-0.89-0.046-1.866,0.293-2.988,0.268c-0.997-0.021-5.277-0.782-6.301-0.759
			c-0.585,0.012-2.456,0.489-3.013,0.521c-0.005,0-0.008,0.003-0.013,0.004v1.622c0,3.447,0.241,5.641,1.728,7.387
			c1.326,1.567,3.254,2.283,4.982,2.283c1.808,0,4.259-0.851,5.625-3.134c1.206-1.97,1.206-5.507,1.206-6.537v-1.586
			C53.93,50.782,53.522,50.758,53.061,50.734z"/>
		<circle fill="#006470" cx="48.225" cy="37.325" r="1.034"/>
		<circle fill="#006470" cx="45.427" cy="33.51" r="1.348"/>
		<circle fill="#006470" cx="48.777" cy="29.776" r="1.611"/>
	</g>
</g>
</svg>
