<?xml version="1.0" encoding="utf-8"?>
<!-- Generator: Adobe Illustrator 17.0.0, SVG Export Plug-In . SVG Version: 6.00 Build 0)  -->
<!DOCTYPE svg PUBLIC "-//W3C//DTD SVG 1.1//EN" "http://www.w3.org/Graphics/SVG/1.1/DTD/svg11.dtd">
<svg version="1.1" id="facebook" xmlns="http://www.w3.org/2000/svg" xmlns:xlink="http://www.w3.org/1999/xlink" x="0px" y="0px"
	 width="96px" height="96px" viewBox="0 0 96 96" enable-background="new 0 0 96 96" xml:space="preserve">
<g>
	<path d="M0.5,51.76c0-1.169,0.884-2.206,2.655-3.109l87.482-45.92c1.035-0.535,1.904-0.803,2.607-0.803
		c0.568,0,1.035,0.167,1.404,0.501C95.216,2.898,95.5,3.6,95.5,4.535c0,0.636-0.083,1.271-0.251,1.905l-18.9,69.432l-1.954,7.069
		c-0.068,0-0.1-0.033-0.1-0.1l-6.868-2.756l-12.334-5.064c-1.135-0.467-3.276-1.294-6.416-2.479
		c-3.142-1.188-5.582-2.165-7.32-2.934l-1.253-0.553c-1.939-0.869-3.075-2.037-3.409-3.507c-0.068-0.47-0.1-0.786-0.1-0.955
		c0-1.271,0.553-2.472,1.655-3.61l38.3-41.108c1.369-1.469,1.987-2.281,1.854-2.43c-0.133-0.151-0.985,0.393-2.555,1.629
		L27.27,57.375c-1.537,1.235-3.559,2.038-6.066,2.405c-0.769,0.136-1.555,0.201-2.356,0.201c-1.537,0-2.942-0.251-4.21-0.754
		l-11.181-4.41C1.485,54.049,0.5,53.031,0.5,51.76z M26.067,74.219c-0.402-0.934-0.6-1.728-0.6-2.381c0-0.653,0.198-1.178,0.6-1.578
		c0.402-0.402,0.934-0.603,1.605-0.603c0.668,0,1.469,0.183,2.406,0.553l8.621,3.507c1.871,0.736,3.075,1.989,3.61,3.76
		c0.133,0.535,0.234,1.103,0.301,1.706c0,1.135-0.384,2.288-1.153,3.459c-4.981,7.619-7.521,11.429-7.621,11.429v-0.05
		C33.969,93.652,31.38,87.053,26.067,74.219z"/>
</g>
</svg>
