<?xml version="1.0" encoding="utf-8"?>
<!-- Generator: Adobe Illustrator 17.0.0, SVG Export Plug-In . SVG Version: 6.00 Build 0)  -->
<!DOCTYPE svg PUBLIC "-//W3C//DTD SVG 1.1//EN" "http://www.w3.org/Graphics/SVG/1.1/DTD/svg11.dtd">
<svg version="1.1" id="facebook" xmlns="http://www.w3.org/2000/svg" xmlns:xlink="http://www.w3.org/1999/xlink" x="0px" y="0px"
	 width="96px" height="96px" viewBox="0 0 96 96" enable-background="new 0 0 96 96" xml:space="preserve">
<g>
	<path fill="#010101" d="M61.527,52.027C64.985,46.783,67,40.502,67,33.75C67,15.387,52.113,0.5,33.75,0.5
		C15.387,0.5,0.5,15.387,0.5,33.75S15.387,67,33.75,67c6.752,0,13.033-2.015,18.277-5.473L86,95.5l9.5-9.5L61.527,52.027z
		 M33.75,57.5C20.654,57.5,10,46.846,10,33.75S20.654,10,33.75,10S57.5,20.654,57.5,33.75S46.846,57.5,33.75,57.5z"/>
	<polygon fill="#010101" points="38.5,19.5 29,19.5 29,29 19.5,29 19.5,38.5 29,38.5 29,48 38.5,48 38.5,38.5 48,38.5 48,29 
		38.5,29 	"/>
</g>
</svg>
