<?xml version="1.0" encoding="utf-8"?>
<!-- Generator: Adobe Illustrator 17.0.0, SVG Export Plug-In . SVG Version: 6.00 Build 0)  -->
<!DOCTYPE svg PUBLIC "-//W3C//DTD SVG 1.1//EN" "http://www.w3.org/Graphics/SVG/1.1/DTD/svg11.dtd">
<svg version="1.1" id="facebook" xmlns="http://www.w3.org/2000/svg" xmlns:xlink="http://www.w3.org/1999/xlink" x="0px" y="0px"
	 width="96px" height="96px" viewBox="0 0 96 96" enable-background="new 0 0 96 96" xml:space="preserve">
<g>
	<path d="M0.5,92.197c0.035-0.394,0.074-0.994,0.121-1.8c0.049-0.805,0.089-1.39,0.121-1.75c0.131-1.644,0.331-4.117,0.605-7.419
		s0.494-5.775,0.655-7.419c0.131-1.611,0.331-4.026,0.605-7.248c0.274-3.22,0.477-5.636,0.605-7.246
		C3.672,54.056,4,50.111,4.198,47.482c0.032-0.327-0.067-0.673-0.296-1.035c-0.427-0.69-0.64-1.381-0.64-2.07
		c0-0.329,0.049-0.641,0.148-0.937c0.296-1.018,0.968-1.791,2.021-2.317c0.329-0.131,0.494-0.361,0.494-0.69
		c0.032-1.412,0.049-2.826,0.049-4.239c0-1.413-0.017-2.843-0.049-4.29c0-0.394-0.198-0.69-0.59-0.887
		c-0.296-0.164-0.771-0.387-1.428-0.666c-0.657-0.279-1.114-0.484-1.371-0.616c2.655-1.478,6.512-3.631,11.573-6.458
		c2.332-1.314,7.517-4.207,15.553-8.677c8.036-4.469,14.224-7.92,18.561-10.353c0.526-0.295,1.052-0.443,1.578-0.443
		c0.459,0,0.904,0.115,1.331,0.345c3.812,1.94,7.853,3.986,12.126,6.139s9.014,4.535,14.224,7.148
		c5.207,2.614,9.244,4.643,12.102,6.089c2.564,1.314,4.535,2.317,5.916,3.008c-0.099,0.065-0.23,0.14-0.393,0.221
		c-0.166,0.083-0.296,0.157-0.395,0.222C69.896,40.121,55.191,47.925,50.589,50.391c-0.59,0.296-1.183,0.312-1.774,0.049
		c-9.039-4.075-22.63-10.155-40.771-18.24c-0.329-0.131-0.625-0.247-0.887-0.346v4.733v2.169c-0.035,0.526-0.035,0.921,0,1.183
		c0.032,0.264,0.156,0.567,0.368,0.913c0.215,0.345,0.551,0.632,1.01,0.862c0.763,0.395,1.213,1.077,1.346,2.047
		c0.133,0.97-0.067,1.849-0.6,2.637c-0.299,0.461-0.45,1.003-0.45,1.627c0.366,4.404,0.899,10.485,1.598,18.241
		c0.166,1.742,0.408,4.371,0.724,7.887c0.316,3.518,0.558,6.146,0.724,7.887c0.168,2.269,0.45,5.39,0.85,9.367v0.789H0.5z
		 M20.17,51.475c0.035-0.065,0.091-0.18,0.173-0.345c0.082-0.164,0.156-0.279,0.222-0.345c2.959-4.371,4.617-6.82,4.98-7.346
		c0.329-0.459,0.739-0.592,1.233-0.394l22.183,9.909c0.526,0.23,1.052,0.196,1.578-0.099c9.335-4.996,16.336-8.726,21.002-11.191
		c0.198-0.131,0.526-0.295,0.986-0.493c0.756,1.118,1.872,2.785,3.352,5.005c1.48,2.218,2.581,3.887,3.303,5.003
		c-1.018,0.657-2.448,1.561-4.288,2.711c-1.84,1.151-3.006,1.891-3.5,2.218c-2.201,1.414-5.538,3.518-10.007,6.31
		c-4.471,2.794-7.806,4.881-10.009,6.262c-0.294,0.196-0.608,0.295-0.936,0.295c-0.296,0-0.59-0.082-0.887-0.247
		c-6.344-3.746-15.891-9.333-28.642-16.762L20.17,51.475z"/>
</g>
</svg>
