<?xml version="1.0" encoding="utf-8"?>
<!-- Generator: Adobe Illustrator 17.0.0, SVG Export Plug-In . SVG Version: 6.00 Build 0)  -->
<!DOCTYPE svg PUBLIC "-//W3C//DTD SVG 1.1//EN" "http://www.w3.org/Graphics/SVG/1.1/DTD/svg11.dtd">
<svg version="1.1" id="facebook" xmlns="http://www.w3.org/2000/svg" xmlns:xlink="http://www.w3.org/1999/xlink" x="0px" y="0px"
	 width="96px" height="96px" viewBox="0 0 96 96" enable-background="new 0 0 96 96" xml:space="preserve">
<g>
	<path d="M0.5,74.895V28.3c0-1.743,0.502-2.852,1.508-3.322c0.335-0.166,0.656-0.251,0.956-0.251c0.772,0,1.629,0.369,2.567,1.107
		l37.439,28.329c1.374,1.04,3.051,1.559,5.03,1.559c1.979,0,3.656-0.519,5.033-1.559l37.436-28.329
		c0.94-0.737,1.795-1.107,2.567-1.107c0.403,0.068,0.721,0.151,0.956,0.251c1.006,0.47,1.51,1.578,1.51,3.322v46.595
		c0,1.745-0.62,3.237-1.861,4.478c-1.276,1.275-2.786,1.912-4.531,1.912h-41.11H6.788c-1.677,0-3.154-0.638-4.427-1.912
		C1.12,78.133,0.5,76.64,0.5,74.895z M6.286,16.274c0-0.168,0.015-0.301,0.05-0.402c0.267-0.772,1.273-1.157,3.018-1.157h38.644
		h38.646c1.742,0,2.748,0.386,3.018,1.157c0.033,0.101,0.05,0.234,0.05,0.402c0,0.672-0.57,1.46-1.712,2.365L53.785,45.861
		c-1.374,1.074-3.136,1.61-5.282,1.61h-1.006c-2.181,0-3.943-0.536-5.285-1.61L7.996,18.639C6.856,17.734,6.286,16.946,6.286,16.274
		z"/>
</g>
</svg>
