<?xml version="1.0" encoding="utf-8"?>
<!-- Generator: Adobe Illustrator 17.0.0, SVG Export Plug-In . SVG Version: 6.00 Build 0)  -->
<!DOCTYPE svg PUBLIC "-//W3C//DTD SVG 1.1//EN" "http://www.w3.org/Graphics/SVG/1.1/DTD/svg11.dtd">
<svg version="1.1" id="facebook" xmlns="http://www.w3.org/2000/svg" xmlns:xlink="http://www.w3.org/1999/xlink" x="0px" y="0px"
	 width="96px" height="96px" viewBox="0 0 96 96" enable-background="new 0 0 96 96" xml:space="preserve">
<g>
	<g>
		<path fill="#010101" d="M32.687,46.017c-9.45-3.915-17.751-4.267-25.371-1.101L6.846,43.76c7.941-3.29,16.564-2.925,26.323,1.108
			L32.687,46.017z"/>
	</g>
	<g>
		<path fill="#010101" d="M33.169,52.425c-9.748-4.027-18.382-4.392-26.323-1.108l0.47,1.15c7.645-3.154,15.932-2.795,25.371,1.108
			L33.169,52.425z"/>
	</g>
	<g>
		<path fill="#010101" d="M33.169,37.308c-9.748-4.026-18.382-4.392-26.323-1.113l0.47,1.157c7.645-3.161,15.932-2.802,25.371,1.108
			L33.169,37.308z"/>
	</g>
	<path fill="#010101" d="M75.215,52.221v20.905c-17.541-11.109-32.706-0.935-32.706,0.803V36.913
		c0-6.575,8.696-10.125,19.409-10.125c2.956,0,5.727,0.446,8.226,1.168l3.612-3.612c-17.949-5.493-31.729,2.622-33.622,4.373
		C37.424,26.095,21.838,17.009,0.5,26.274c0,0.142,0,2.703,0,6.618v44.205h32.421c1.113,0.959,3.748,1.64,6.829,1.64
		c3.08,0,5.715-0.681,6.841-1.64H79V48.43L75.215,52.221z M37.239,73.929c0-1.738-15.178-11.912-32.694-0.804V30.023
		c3.464-2.004,8.14-3.235,13.286-3.235c10.712,0,19.408,3.55,19.408,10.125V73.929z"/>
	<path fill="#010101" d="M44.97,44.866l0.47,1.15c3.723-1.546,7.558-2.381,11.331-2.826l0.544-1.311
		C53.208,42.294,49.027,43.191,44.97,44.866z"/>
	<path fill="#010101" d="M44.97,52.425l0.47,1.15c2.659-1.094,5.368-1.85,8.09-2.388l0.532-1.324
		C51.019,50.414,47.951,51.194,44.97,52.425z"/>
	<path fill="#010101" d="M44.97,37.308l0.47,1.15c5.715-2.363,11.677-3.296,17.268-3.062l1.175-1.175
		C57.798,33.789,51.229,34.718,44.97,37.308z"/>
	<path fill="#010101" d="M94.945,24.975l-7.15-7.15c-0.977-0.99-2.944-0.636-4.354,0.779L60.433,41.619l-2.425,5.918
		c-0.543,1.342-1.311,3.266-1.979,4.892c-0.185,0.452-0.396,0.971-0.557,1.336l-1.126,2.802c-0.705,1.72,0.136,2.549,1.842,1.862
		l2.808-1.15c0.359-0.148,0.891-0.359,1.336-0.544c1.633-0.655,3.539-1.441,4.898-1.979l5.914-2.419l23.02-23.014
		C95.576,27.913,95.923,25.959,94.945,24.975z M64.515,52.963l-3.723,1.515l-2.499-2.505l0.742-1.832l0.768-1.873l1.311-3.241
		l6.619,6.624L64.515,52.963z"/>
</g>
</svg>
