<?xml version="1.0" encoding="utf-8"?>
<!-- Generator: Adobe Illustrator 17.0.0, SVG Export Plug-In . SVG Version: 6.00 Build 0)  -->
<!DOCTYPE svg PUBLIC "-//W3C//DTD SVG 1.1//EN" "http://www.w3.org/Graphics/SVG/1.1/DTD/svg11.dtd">
<svg version="1.1" id="facebook" xmlns="http://www.w3.org/2000/svg" xmlns:xlink="http://www.w3.org/1999/xlink" x="0px" y="0px"
	 width="96px" height="96px" viewBox="0 0 96 96" enable-background="new 0 0 96 96" xml:space="preserve">
<g>
	<path d="M4.232,64.366c0-1.566,0.485-2.631,1.457-3.193c0.939-0.533,1.612-1.722,2.019-3.57c0.219-1.033,0.329-1.909,0.329-2.63
		c0.031-0.846-0.08-1.815-0.329-2.912v-3.851c0-2.567,0.031-4.007,0.094-4.32c0.155-0.688,0.266-1.706,0.329-3.053
		c0-0.969-0.08-1.831-0.235-2.582c-0.376-1.847-1.08-3.052-2.113-3.615c-1.002-0.564-1.504-1.659-1.504-3.287
		c0-1.691,0.501-3.381,1.504-5.072l2.207-3.757c1.033-1.753,2.254-3.037,3.661-3.851c0.814-0.501,1.581-0.752,2.301-0.752
		c0.471,0,0.925,0.126,1.362,0.375c0.438,0.252,1.111,0.408,2.019,0.471c0.72,0,1.471-0.109,2.254-0.329
		c1.878-0.532,3.584-1.408,5.118-2.63l7.139-3.851c2.254-1.221,3.835-2.301,4.744-3.24c1.313-1.409,1.972-2.707,1.972-3.898
		c0-1.189,0.704-2.207,2.113-3.053C42.114,0.922,43.85,0.5,45.886,0.5h4.226c2.005,0,3.727,0.439,5.167,1.314
		c1.44,0.878,2.16,1.911,2.16,3.1c0,1.221,0.656,2.535,1.972,3.945c1.282,1.378,2.864,2.473,4.744,3.287l6.807,3.944
		c1.598,1.253,3.334,2.099,5.214,2.537c0.781,0.187,1.518,0.281,2.207,0.281c0.845,0,1.579-0.172,2.207-0.516
		c0.468-0.281,0.969-0.422,1.501-0.422c0.753,0,1.534,0.235,2.348,0.705c1.377,0.72,2.598,2.004,3.664,3.851l2.207,3.757
		c0.969,1.66,1.457,3.319,1.457,4.978V31.4c0,1.659-0.548,2.801-1.645,3.427c-1.127,0.627-1.894,1.832-2.301,3.617
		c-0.219,0.877-0.329,1.831-0.329,2.865c0,1.002,0.111,1.957,0.329,2.864v4.039v3.662c-0.158,1.002-0.235,1.848-0.235,2.537
		c0,0.094,0,0.204,0,0.328c0,0.814,0.111,1.707,0.329,2.677c0.407,1.754,1.144,2.944,2.207,3.57s1.598,1.785,1.598,3.475v0.14
		c0,1.66-0.471,3.304-1.409,4.931l-2.207,3.757c-1.097,1.879-2.318,3.179-3.664,3.898c-0.845,0.471-1.595,0.705-2.254,0.705
		c-0.501,0-0.969-0.126-1.407-0.375c-0.501-0.314-1.16-0.469-1.974-0.469c-0.656,0-1.407,0.125-2.254,0.375
		c-1.847,0.532-3.567,1.408-5.165,2.63l-7.231,4.227c-1.911,0.845-3.492,1.908-4.744,3.193c-1.315,1.377-1.972,2.645-1.972,3.804
		c0,1.189-0.72,2.175-2.16,2.958c-1.473,0.846-3.193,1.268-5.167,1.268h-4.226c-2.002,0-3.741-0.407-5.212-1.221
		c-1.409-0.814-2.113-1.784-2.113-2.911c0-1.097-0.659-2.333-1.972-3.711c-1.254-1.284-2.835-2.347-4.744-3.193l-7.513-4.226
		c-1.534-1.221-3.226-2.098-5.073-2.63c-0.908-0.252-1.689-0.392-2.346-0.424c-0.689,0-1.285,0.141-1.786,0.424
		c-0.438,0.249-0.875,0.375-1.315,0.375c-0.72,0-1.471-0.251-2.254-0.752c-1.44-0.875-2.661-2.191-3.661-3.945l-2.113-3.757
		C4.75,67.653,4.232,65.932,4.232,64.366z M21.748,47.836c0,4.695,1.132,9.032,3.393,13.008c2.292,3.977,5.405,7.107,9.339,9.392
		c3.934,2.286,8.276,3.428,13.024,3.428c4.746,0,9.111-1.142,13.097-3.428c4.047-2.317,7.217-5.447,9.509-9.392
		c2.353-4.101,3.513-8.437,3.482-13.008c0-4.603-1.179-8.938-3.539-13.009c-2.327-4.038-5.487-7.2-9.48-9.485
		c-4.026-2.317-8.384-3.475-13.069-3.475c-3.428,0-6.779,0.689-10.05,2.066c-3.148,1.347-5.89,3.193-8.226,5.541
		c-2.306,2.38-4.13,5.174-5.471,8.383C22.419,41.066,21.748,44.392,21.748,47.836z M36.822,47.506c0,2.944,1.089,5.511,3.264,7.701
		c2.174,2.129,4.781,3.194,7.819,3.194c2.944,0,5.48-1.065,7.607-3.194c2.099-2.097,3.148-4.664,3.148-7.701
		c0-2.973-1.049-5.51-3.148-7.607c-2.097-2.097-4.633-3.146-7.607-3.146c-3.071,0-5.678,1.049-7.819,3.146
		C37.911,42.029,36.822,44.564,36.822,47.506z"/>
</g>
</svg>
