<?xml version="1.0" encoding="utf-8"?>
<!-- Generator: Adobe Illustrator 17.0.0, SVG Export Plug-In . SVG Version: 6.00 Build 0)  -->
<!DOCTYPE svg PUBLIC "-//W3C//DTD SVG 1.1//EN" "http://www.w3.org/Graphics/SVG/1.1/DTD/svg11.dtd">
<svg version="1.1" id="facebook" xmlns="http://www.w3.org/2000/svg" xmlns:xlink="http://www.w3.org/1999/xlink" x="0px" y="0px"
	 width="96px" height="96px" viewBox="0 0 96 96" enable-background="new 0 0 96 96" xml:space="preserve">
<g>
	<path fill="#489BD5" d="M76.655,11.802C60.833-4.02,35.267-3.891,19.444,11.931C3.622,27.753,3.509,53.375,19.332,67.576L47.92,96
		l28.649-28.649C92.391,53.15,92.478,27.625,76.655,11.802z"/>
</g>
<polygon fill="none" stroke="#816C65" stroke-width="0.216" stroke-miterlimit="22.9256" points="48,9.184 60.628,35.107 
	73.97,62.494 22.03,62.494 35.372,35.107 "/>
<path fill="#FCEE23" d="M48.512,34.338c0.905,0,1.745,0.252,2.438,0.681l4.859-10.238l4.152,8.781l-7.575,2.966
	c0.261,0.491,0.407,1.04,0.407,1.618c0,0.734-0.236,1.421-0.644,2.005l20.187,18.277l2.972,4.682h-9.318L50.298,41.608
	c-0.544,0.223-1.149,0.349-1.786,0.349c-0.748,0-1.451-0.172-2.064-0.475L30.103,62.92l-9.412-0.027l2.812-4.682l21.211-18.307
	c-0.309-0.526-0.484-1.123-0.484-1.755c0-0.704,0.216-1.363,0.592-1.93l-8.764-2.227l4.383-9.104l5.971,9.943
	C47.034,34.517,47.75,34.338,48.512,34.338z"/>
<path fill="#2E368F" d="M48,3.724L62.875,34.26L77.75,64.795H48H18.25l14.875-30.535L48,3.724L48,3.724z M48,9.245L35.372,35.168
	L22.03,62.555h51.939L60.628,35.168L48,9.245z"/>
<polygon fill="#2E368F" points="49.353,25.571 46.534,27.421 46.534,36.872 39.655,36.872 38.077,39.234 46.76,39.234 46.76,54.746 
	49.306,52.281 49.306,39.234 56.683,39.234 57.923,36.872 49.353,36.872 "/>
<g>
	<path fill="#FFFFFF" stroke="#2E368F" stroke-width="0.4989" stroke-miterlimit="22.9256" d="M48.178,28.912
		c-0.593,0.963-2.498-0.191-3.057-0.54c0.055-0.561,0.818-0.652,1.243-1.079l0.246-0.686c-1.885-1.028-2.09-3.3-2.125-5.304
		c-0.067-2.096,0.942-5.1,1.312-2.757c-0.023,0.527,0.09,0.885,0.234,1.177c0.146,0.358,0.09,0.818,0.034,1.077
		c0.516,0.695,0.964,1.188,0.942,2.925c0.482-1.367,0.897-1.222,1.345-0.976c0.841-1.471,2.181-2.375,2.457-4.136
		c1.617,2.04,0.231,7.279-1.74,6.836c-0.069,0.576-0.255,1.156-0.832,1.658C48.333,27.755,48.359,28.334,48.178,28.912z"/>
	<polyline fill="none" stroke="#2E368F" stroke-width="0.4989" stroke-miterlimit="22.9256" points="48.318,22.75 48.419,23.355 
		47.948,23.355 	"/>
	
		<line fill="none" stroke="#2E368F" stroke-width="0.4989" stroke-miterlimit="22.9256" x1="46.57" y1="29.105" x2="47.175" y2="28.265"/>
	
		<line fill="none" stroke="#2E368F" stroke-width="0.4989" stroke-miterlimit="22.9256" x1="46.133" y1="28.923" x2="46.738" y2="28.484"/>
	<path fill="#2E368F" stroke="#2E368F" stroke-width="0.216" stroke-miterlimit="22.9256" d="M44.955,18.412l0.808,2.791
		c0.101,1.222,0.067,2.612-0.302,3.43l-0.942-3.093l0.034-0.875l1.009,2.858c0.09-1.558-0.561-2.578-0.941-3.564l0.134-0.773
		l0.706,1.648L44.955,18.412z"/>
	<path fill="none" stroke="#2E368F" stroke-width="0.4989" stroke-miterlimit="22.9256" d="M48.992,25.844
		c0-0.325,0.067-0.684-0.101-1.008"/>
	<path fill="#2E368F" stroke="#2E368F" stroke-width="0.216" stroke-miterlimit="22.9256" d="M51.076,19.185
		c-0.235,1.625-0.909,2.309-1.513,3.363l0.471,1.077l0.202-0.168l-0.404-0.976l0.27-0.37c0.18,0.617,0.83,0.158,1.244,0.235
		C51.558,21.561,51.468,20.138,51.076,19.185z"/>
	
		<line fill="none" stroke="#2E368F" stroke-width="0.216" stroke-miterlimit="22.9256" x1="51.274" y1="20.272" x2="50.161" y2="22.181"/>
	
		<line fill="none" stroke="#2E368F" stroke-width="0.4989" stroke-miterlimit="22.9256" x1="51.477" y1="20.602" x2="50.716" y2="22.424"/>
	
		<ellipse fill="#2E368F" stroke="#2E368F" stroke-width="0.216" stroke-miterlimit="22.9256" cx="48.03" cy="22.967" rx="0.106" ry="0.048"/>
</g>
</svg>
