<?xml version="1.0" encoding="utf-8"?>
<!-- Generator: Adobe Illustrator 17.0.0, SVG Export Plug-In . SVG Version: 6.00 Build 0)  -->
<!DOCTYPE svg PUBLIC "-//W3C//DTD SVG 1.1//EN" "http://www.w3.org/Graphics/SVG/1.1/DTD/svg11.dtd">
<svg version="1.1" id="facebook" xmlns="http://www.w3.org/2000/svg" xmlns:xlink="http://www.w3.org/1999/xlink" x="0px" y="0px"
	 width="96px" height="96px" viewBox="0 0 96 96" enable-background="new 0 0 96 96" xml:space="preserve">
<g>
	<path d="M0.778,15.168v-3.322c0.069-1.053,0.4-1.909,0.997-2.571S3.18,8.213,4.202,8.078c2.727-0.374,6.804-0.925,12.238-1.655
		c5.432-0.73,9.498-1.277,12.2-1.639c4.845-0.655,12.153-1.636,21.916-2.946c6.406-0.824,10.051-1.27,10.937-1.339
		c0.101,0,0.221,0,0.358,0c0.85,0,1.787,0.307,2.81,0.919c2.044,1.194,10.341,6.049,24.888,14.566
		c0.204,0.137,0.715,0.443,1.534,0.92c0.817,0.477,1.446,0.852,1.89,1.124c1.534,0.784,2.3,2.095,2.3,3.936v18.347v11.857h-0.051
		v29.489c0,1.703-0.324,2.905-0.97,3.603c-0.648,0.698-1.823,1.167-3.527,1.405c-3.039,0.398-7.315,0.999-12.827,1.802
		c-5.51,0.802-9.194,1.336-11.047,1.6c-3.369,0.514-8.401,1.239-15.096,2.177c-6.697,0.936-11.749,1.646-15.154,2.131
		c-2.93,0.409-5.11,0.749-6.539,1.022c-0.307,0.068-0.614,0.102-0.92,0.102c-1.227,0-2.3-0.459-3.22-1.38
		c-5.247-5.31-13.185-13.314-23.815-24.013c-0.918-0.954-1.38-2.248-1.38-3.884C0.761,54.878,0.778,37.859,0.778,15.168z
		 M15.493,15.049c6.202,4.584,10.872,8.023,14.008,10.314c0.408,0.308,0.92,0.393,1.534,0.256c7.536-0.992,20.563-2.718,39.082-5.18
		c2.069-0.24,5.173-0.651,9.314-1.234c-0.545-0.409-0.955-0.681-1.227-0.817c-7.019-4.157-12.282-7.24-15.792-9.251
		c-0.614-0.374-1.328-0.562-2.145-0.562c-0.137,0-0.274,0-0.41,0c-0.817,0.069-3.321,0.357-7.513,0.869
		c-3.443,0.463-8.622,1.158-15.54,2.084s-12.029,1.613-15.329,2.055c-1.145,0.133-3.258,0.416-6.339,0.85
		c-0.034,0.034-0.069,0.094-0.103,0.179c-0.034,0.087-0.05,0.147-0.05,0.18L15.493,15.049z M32.821,84.06v3.015
		c14.765-2.078,33.059-4.684,54.883-7.819v-53.1c-0.526,0-0.876,0.017-1.052,0.05c-2.717,0.273-6.132,0.682-10.243,1.227
		c-4.114,0.545-7.199,0.954-9.258,1.226c-14.713,1.977-25.765,3.442-33.154,4.396c-0.511,0.069-0.844,0.212-0.997,0.434
		c-0.154,0.222-0.231,0.571-0.231,1.047C32.804,45.543,32.821,62.051,32.821,84.06z M40.538,72.204c-0.034-0.238,0-0.46,0.103-0.665
		c0.135-0.34,0.339-0.613,0.614-0.817c0.204-0.205,0.511-0.442,0.918-0.715c1.362-0.852,2.199-1.618,2.506-2.3
		c3.883-7.939,6.558-14.566,8.024-19.881c0.204-0.715,0.373-2.078,0.511-4.089c0.17-2.521,1.294-4.224,3.373-5.11
		c1.056-0.476,2.044-0.715,2.965-0.715c1.362,0,2.555,0.529,3.578,1.584c1.873,2.011,3.355,4.02,4.445,6.031
		c1.738,3.237,4.514,8.689,8.33,16.354c0.852,1.67,1.924,2.556,3.22,2.658c0.442,0,0.766,0.171,0.972,0.511
		c0.067,0.205,0.101,0.393,0.101,0.563s-0.034,0.34-0.101,0.511c-0.341,0.989-0.802,1.686-1.38,2.095
		c-1.023,0.715-2.113,1.194-3.272,1.431c-0.886,0.171-4.344,0.734-10.375,1.687c-0.272-0.033-0.606-0.077-0.997-0.128
		c-0.393-0.051-0.716-0.103-0.972-0.153c-0.255-0.051-0.486-0.111-0.69-0.179c-0.783-0.238-1.244-0.733-1.38-1.482
		c-0.137-0.749,0.118-1.38,0.766-1.891c0.206-0.204,0.427-0.357,0.665-0.459c1.09-0.477,1.515-1.193,1.279-2.147
		c-0.24-0.885-0.937-1.259-2.096-1.124c-1.772,0.171-4.43,0.494-7.972,0.972c-0.682,0.069-1.16,0.29-1.433,0.664
		c-0.442,0.715-0.663,1.465-0.663,2.248c0,0.307,0.442,0.596,1.328,0.869c0.749,0.239,1.227,0.622,1.431,1.15
		c0.204,0.529,0.051,1.082-0.459,1.661c-0.886,0.919-1.755,1.481-2.607,1.686c-2.079,0.443-4.754,0.817-8.024,1.124
		c-0.171,0-0.324,0-0.461,0c-1.225,0-1.959-0.476-2.197-1.431C40.555,72.545,40.538,72.374,40.538,72.204z M54.464,58.072
		c0.051,0.12,0.128,0.255,0.231,0.409s0.17,0.264,0.204,0.332c2.42-0.374,4.224-0.665,5.417-0.869
		c0.648-0.103,0.972-0.358,0.972-0.767c0-0.204-0.086-0.442-0.255-0.715c-1.124-2.18-1.926-3.611-2.403-4.293
		c-0.341-0.545-0.715-0.817-1.124-0.817c-0.034,0-0.069,0-0.101,0c-0.41,0.034-0.751,0.357-1.023,0.971
		c-0.511,1.158-1.176,2.964-1.993,5.417C54.388,57.842,54.413,57.953,54.464,58.072z"/>
</g>
</svg>
