<?xml version="1.0" encoding="utf-8"?>
<!-- Generator: Adobe Illustrator 17.0.0, SVG Export Plug-In . SVG Version: 6.00 Build 0)  -->
<!DOCTYPE svg PUBLIC "-//W3C//DTD SVG 1.1//EN" "http://www.w3.org/Graphics/SVG/1.1/DTD/svg11.dtd">
<svg version="1.1" id="facebook" xmlns="http://www.w3.org/2000/svg" xmlns:xlink="http://www.w3.org/1999/xlink" x="0px" y="0px"
	 width="96px" height="96px" viewBox="0 0 96 96" enable-background="new 0 0 96 96" xml:space="preserve">
<path fill="#010101" d="M65.812,53.938c0,9.834-7.979,17.812-17.812,17.812c-9.837,0-17.812-7.979-17.812-17.812
	S38.163,36.125,48,36.125C57.834,36.125,65.812,44.104,65.812,53.938z M95.5,30.188v47.5c0,6.558-5.317,11.875-11.875,11.875h-71.25
	C5.817,89.562,0.5,84.245,0.5,77.688v-47.5c0-6.558,5.317-11.875,11.875-11.875h17.812v-5.938c0-3.282,2.659-5.938,5.938-5.938
	h23.75c3.282,0,5.938,2.656,5.938,5.938v5.938h17.812C90.183,18.312,95.5,23.63,95.5,30.188z M71.75,53.938
	c0-13.093-10.657-23.75-23.75-23.75c-13.096,0-23.75,10.657-23.75,23.75S34.904,77.688,48,77.688
	C61.093,77.688,71.75,67.03,71.75,53.938z M89.562,24.25H71.75v11.875h17.812V24.25z"/>
</svg>
